<?xml version="1.0" encoding="utf-8"?>
<svg width="70px" height="50px" viewBox="0 0 70 50" version="1.1" xmlns:xlink="http://www.w3.org/1999/xlink" xmlns="http://www.w3.org/2000/svg">
  <desc>Created with Lunacy</desc>
  <g id="amex">
    <path d="M6.63058 0L63.3694 0Q63.5322 0 63.6948 0.00798682Q63.8573 0.0159736 64.0193 0.031928Q64.1813 0.0478824 64.3423 0.071766Q64.5033 0.0956495 64.663 0.127405Q64.8226 0.15916 64.9805 0.19871Q65.1384 0.23826 65.2942 0.28551Q65.4499 0.332761 65.6032 0.387597Q65.7564 0.442433 65.9068 0.504723Q66.0572 0.567013 66.2044 0.636606Q66.3515 0.7062 66.495 0.78293Q66.6386 0.85966 66.7782 0.943342Q66.9178 1.02702 67.0532 1.11745Q67.1885 1.20789 67.3193 1.30485Q67.45 1.40181 67.5758 1.50507Q67.7016 1.60833 67.8222 1.71764Q67.9428 1.82695 68.0579 1.94205Q68.173 2.05715 68.2824 2.17775Q68.3917 2.29836 68.4949 2.42418Q68.5982 2.55001 68.6952 2.68075Q68.7921 2.81149 68.8825 2.94683Q68.973 3.08217 69.0567 3.22178Q69.1403 3.36139 69.2171 3.50495Q69.2938 3.6485 69.3634 3.79564Q69.433 3.94278 69.4953 4.09317Q69.5576 4.24355 69.6124 4.3968Q69.6672 4.55006 69.7145 4.70582Q69.7617 4.86159 69.8013 5.01948Q69.8408 5.17737 69.8726 5.33702Q69.9043 5.49666 69.9282 5.65767Q69.9521 5.81868 69.9681 5.98067Q69.984 6.14266 69.992 6.30523Q70 6.46781 70 6.63058L70 43.3694Q70 43.5322 69.992 43.6948Q69.984 43.8573 69.9681 44.0193Q69.9521 44.1813 69.9282 44.3423Q69.9043 44.5033 69.8726 44.663Q69.8408 44.8226 69.8013 44.9805Q69.7617 45.1384 69.7145 45.2942Q69.6672 45.4499 69.6124 45.6032Q69.5576 45.7565 69.4953 45.9068Q69.433 46.0572 69.3634 46.2044Q69.2938 46.3515 69.2171 46.4951Q69.1403 46.6386 69.0566 46.7782Q68.973 46.9178 68.8825 47.0532Q68.7921 47.1885 68.6952 47.3193Q68.5982 47.45 68.4949 47.5758Q68.3917 47.7016 68.2824 47.8222Q68.173 47.9429 68.0579 48.0579Q67.9428 48.173 67.8223 48.2824Q67.7016 48.3917 67.5758 48.4949Q67.45 48.5982 67.3193 48.6952Q67.1885 48.7921 67.0532 48.8825Q66.9178 48.973 66.7782 49.0567Q66.6386 49.1403 66.4951 49.2171Q66.3515 49.2938 66.2044 49.3634Q66.0572 49.433 65.9068 49.4953Q65.7564 49.5576 65.6032 49.6124Q65.4499 49.6672 65.2942 49.7145Q65.1384 49.7617 64.9805 49.8013Q64.8226 49.8408 64.663 49.8726Q64.5033 49.9043 64.3423 49.9282Q64.1813 49.9521 64.0193 49.9681Q63.8573 49.984 63.6948 49.992Q63.5322 50 63.3694 50L6.63058 50Q6.46781 50 6.30523 49.992Q6.14266 49.984 5.98067 49.9681Q5.81868 49.9521 5.65767 49.9282Q5.49666 49.9043 5.33702 49.8726Q5.17737 49.8408 5.01948 49.8013Q4.86159 49.7617 4.70582 49.7145Q4.55006 49.6672 4.3968 49.6124Q4.24355 49.5576 4.09317 49.4953Q3.94279 49.433 3.79564 49.3634Q3.6485 49.2938 3.50495 49.2171Q3.36139 49.1403 3.22178 49.0567Q3.08217 48.973 2.94683 48.8825Q2.81149 48.7921 2.68075 48.6952Q2.55001 48.5982 2.42418 48.4949Q2.29836 48.3917 2.17775 48.2824Q2.05715 48.173 1.94205 48.0579Q1.82695 47.9429 1.71764 47.8222Q1.60833 47.7016 1.50507 47.5758Q1.40181 47.45 1.30485 47.3192Q1.20789 47.1885 1.11745 47.0532Q1.02702 46.9178 0.943342 46.7782Q0.85966 46.6386 0.78293 46.495Q0.7062 46.3515 0.636606 46.2044Q0.567013 46.0572 0.504723 45.9068Q0.442433 45.7564 0.387597 45.6032Q0.332761 45.4499 0.28551 45.2942Q0.23826 45.1384 0.19871 44.9805Q0.15916 44.8226 0.127405 44.663Q0.0956495 44.5033 0.071766 44.3423Q0.0478824 44.1813 0.031928 44.0193Q0.0159736 43.8573 0.00798682 43.6948Q0 43.5322 0 43.3694L0 6.63058Q0 6.46781 0.00798682 6.30523Q0.0159736 6.14266 0.031928 5.98067Q0.0478824 5.81868 0.071766 5.65767Q0.0956495 5.49666 0.127405 5.33702Q0.15916 5.17737 0.19871 5.01948Q0.23826 4.86159 0.28551 4.70582Q0.332761 4.55006 0.387597 4.3968Q0.442433 4.24355 0.504723 4.09317Q0.567013 3.94279 0.636606 3.79564Q0.7062 3.6485 0.78293 3.50495Q0.85966 3.36139 0.943342 3.22178Q1.02702 3.08217 1.11745 2.94683Q1.20789 2.81149 1.30485 2.68075Q1.40181 2.55001 1.50507 2.42418Q1.60833 2.29836 1.71764 2.17775Q1.82695 2.05715 1.94205 1.94205Q2.05715 1.82695 2.17775 1.71764Q2.29836 1.60833 2.42418 1.50507Q2.55001 1.40181 2.68075 1.30485Q2.81149 1.20789 2.94683 1.11745Q3.08217 1.02702 3.22178 0.943342Q3.36139 0.85966 3.50495 0.78293Q3.6485 0.7062 3.79564 0.636606Q3.94278 0.567013 4.09317 0.504723Q4.24355 0.442433 4.3968 0.387597Q4.55006 0.332761 4.70582 0.28551Q4.86159 0.23826 5.01948 0.19871Q5.17737 0.15916 5.33702 0.127405Q5.49666 0.0956495 5.65767 0.071766Q5.81868 0.0478824 5.98067 0.031928Q6.14266 0.0159736 6.30523 0.00798682Q6.46781 0 6.63058 0L6.63058 0Z" id="amex-bg" fill="#007ECD" stroke="none" />
    <path d="M49.3346 6.77771L46.5968 2.28555L46.5968 6.77771L43.2124 6.77771L42.6024 5.36771L39.4482 5.36771L38.8486 6.77771L36.1435 6.77771C36.1435 6.77771 33.8198 6.44748 33.8198 3.60503C33.8198 0.120065 36.1203 0.0197925 36.497 0.00337293C36.5235 0.00221694 36.5405 0.00147658 36.5465 0L38.6758 0.0564869L38.6758 1.56932L36.9278 1.59177C36.9278 1.59177 35.7875 1.59177 35.6482 3.05899C35.6333 3.22845 35.6252 3.38197 35.6266 3.52609C35.6333 5.76646 37.5673 5.11216 37.6837 5.0728C37.6853 5.07225 37.6866 5.07181 37.6875 5.07151L39.828 0.0564869L42.2442 0.0564869L44.8338 6.15201L44.8338 0.0564869L47.2745 0.0564869L49.9796 4.48057L49.9796 0.0564869L51.7187 0.0564869L51.7187 6.77771L49.3346 6.77771ZM28.9607 6.77772L28.9607 5.46983C28.9607 5.46983 28.8922 4.44655 27.81 4.44655L26.1297 4.44655L26.1297 6.77772L24.4026 6.77772L24.4026 0.0564958L28.5928 0.0564958C28.5928 0.0564958 30.7795 -0.204937 30.7795 2.02412C30.7795 3.18428 29.8128 3.59345 29.8128 3.59345C29.8128 3.59345 30.6529 3.98017 30.6529 5.11715L30.6529 6.77772L28.9607 6.77772ZM15.4128 6.77771L15.4128 2.13781L13.2492 6.77771L11.8333 6.77771L9.65779 2.16026L9.65779 6.77771L6.25034 6.77771L5.65153 5.36771L2.49805 5.36771L1.88806 6.77771L0 6.77771L2.86598 0.056488L5.29477 0.056488L7.91943 6.23167L7.91943 0.056488L10.6476 0.056488L12.5469 4.23L14.4342 0.056488L17.1624 0.056488L17.1624 6.77771L15.4128 6.77771ZM18.118 0.0572205L18.118 6.77699L23.5051 6.77699L23.5051 5.32282L19.8563 5.32282L19.8563 4.18439L23.4135 4.18439L23.4135 2.66069L19.8563 2.66069L19.8563 1.62582L23.5051 1.62582L23.5051 0.0572205L18.118 0.0572205ZM31.4938 6.80015L33.2306 6.80015L33.2306 0.0579224L31.4938 0.0579224L31.4938 6.80015ZM27.9135 2.86562L26.1297 2.86562L26.1297 1.59177L27.9135 1.59177C28.4319 1.59177 28.8572 1.87637 28.8572 2.22833C28.8572 2.58101 28.4319 2.86562 27.9135 2.86562ZM3.23465 3.64993L4.07478 1.64899L4.91491 3.64993L3.23465 3.64993ZM41.8658 3.64993L40.1848 3.64993L41.0369 1.64899L41.8658 3.64993ZM25.8192 15.9887L22.6076 15.9887L20.7769 13.9972L18.9357 15.9887L12.5126 15.9887L12.5126 9.25661L18.7972 9.25661L20.7769 11.3944L22.7685 9.26819L24.0927 9.26819L24.0927 9.25661L28.2822 9.25661C28.2822 9.25661 30.4697 9.01762 30.4697 11.2337C30.4697 13.2129 29.7428 13.8277 27.5113 13.8277L25.8192 13.8277L25.8192 15.9887ZM44.3281 15.9771L47.4019 15.9771C47.4019 15.9771 47.4801 15.9858 47.6105 15.9858C48.213 15.9858 49.9111 15.7925 49.9111 13.6228C49.9111 11.5987 47.2738 11.7913 47.2738 11.7913C47.2738 11.7913 46.0203 11.8702 46.0203 11.3155C46.0203 10.6536 46.9424 10.8368 46.9424 10.8368L49.6132 10.8368L49.6132 9.26749L46.2966 9.26749C46.2966 9.26749 44.1442 9.1422 44.1442 11.3372C44.1442 13.5438 46.5268 13.3389 46.5268 13.3389C46.5268 13.3389 47.9888 13.2918 47.9888 13.8972C47.9888 14.5432 47.0221 14.4295 47.0221 14.4295L44.3281 14.4295L44.3281 15.9771ZM50.4176 15.9771L53.4906 15.9771C53.4906 15.9771 53.5696 15.9858 53.6992 15.9858C54.3017 15.9858 55.9998 15.7925 55.9998 13.6228C55.9998 11.5987 53.364 11.7913 53.364 11.7913C53.364 11.7913 52.109 11.8702 52.109 11.3155C52.109 10.6536 53.0303 10.8368 53.0303 10.8368L55.6908 10.8368L55.6908 9.26749L52.3853 9.26749C52.3853 9.26749 50.2329 9.1422 50.2329 11.3372C50.2329 13.5438 52.6155 13.3389 52.6155 13.3389C52.6155 13.3389 54.0775 13.2918 54.0775 13.8972C54.0775 14.5432 53.0996 14.4295 53.0996 14.4295L50.4176 14.4295L50.4176 15.9771ZM35.6267 15.9996L35.6267 14.6917C35.6267 14.6917 35.5559 13.6684 34.4737 13.6684L32.7949 13.6684L32.7949 15.9996L31.067 15.9996L31.067 9.27907L35.258 9.27907C35.258 9.27907 37.4447 9.01763 37.4447 11.246C37.4447 12.4061 36.478 12.8153 36.478 12.8153C36.478 12.8153 37.3069 13.202 37.3069 14.3383L37.3069 15.9996L35.6267 15.9996ZM38.159 15.988L38.159 9.27905L43.5446 9.27905L43.5446 10.8368L39.8958 10.8368L39.8958 11.8702L43.4537 11.8702L43.4537 13.3954L39.8958 13.3954L39.8958 14.5338L43.5446 14.5338L43.5446 15.988L38.159 15.988ZM24.0927 15.0219L21.9514 12.6806L24.0927 10.348L24.0927 15.0219ZM27.6029 12.0752L25.8192 12.0752L25.8192 10.802L27.6029 10.802C28.1213 10.802 28.5473 11.0874 28.5473 11.4386C28.5473 11.7913 28.1213 12.0752 27.6029 12.0752ZM34.5787 12.0875L32.7949 12.0875L32.7949 10.8144L34.5787 10.8144C35.0971 10.8144 35.5224 11.0982 35.5224 11.4509C35.5224 11.8036 35.0971 12.0875 34.5787 12.0875ZM14.2509 14.5331L17.8878 14.5331L19.5919 12.6806L17.8878 10.8375L14.2509 10.8375L14.2509 11.8709L17.7962 11.8709L17.7962 13.3961L14.2509 13.3961L14.2509 14.5331Z" transform="translate(8 18.00043)" id="amex-logo" fill="#FFFFFF" fill-rule="evenodd" stroke="none" />
  </g>
</svg>