<svg xmlns="http://www.w3.org/2000/svg" width="250" height="82" viewBox="0 0 312 103">
  <g id="Group_247" data-name="Group 247" opacity="0.6">
    <circle id="Ellipse_12" data-name="Ellipse 12" cx="6" cy="6" r="6" transform="translate(300 91)" fill="#d1aaff"/>
    <circle id="Ellipse_10" data-name="Ellipse 10" cx="6" cy="6" r="6" transform="translate(0 91)" fill="#4349a8"/>
    <circle id="Ellipse_12-2" data-name="Ellipse 12" cx="6" cy="6" r="6" transform="translate(77)" fill="#fff" opacity="0.5"/>
    <circle id="Ellipse_8" data-name="Ellipse 8" cx="6" cy="6" r="6" transform="translate(109)" fill="#4349a8"/>
    <g id="Group_199" data-name="Group 199" transform="translate(0)" opacity="0.05">
      <circle id="Ellipse_11" data-name="Ellipse 11" cx="6" cy="6" r="6" transform="translate(186 91)" fill="#fff"/>
      <circle id="Ellipse_13" data-name="Ellipse 13" cx="6" cy="6" r="6" transform="translate(262 91)" fill="#fff"/>
      <circle id="Ellipse_9" data-name="Ellipse 9" cx="6" cy="6" r="6" transform="translate(146 91)" fill="#fff"/>
      <circle id="Ellipse_10-2" data-name="Ellipse 10" cx="6" cy="6" r="6" transform="translate(223 91)" fill="#fff"/>
      <circle id="Ellipse_10-3" data-name="Ellipse 10" cx="6" cy="6" r="6" transform="translate(0 59)" fill="#fff"/>
      <circle id="Ellipse_13-2" data-name="Ellipse 13" cx="6" cy="6" r="6" transform="translate(39)" fill="#fff"/>
      <circle id="Ellipse_11-2" data-name="Ellipse 11" cx="6" cy="6" r="6" transform="translate(186)" fill="#fff"/>
      <circle id="Ellipse_9-2" data-name="Ellipse 9" cx="6" cy="6" r="6" transform="translate(146)" fill="#fff"/>
    </g>
    <g id="Group_197" data-name="Group 197" transform="translate(39 30)" opacity="0.05">
      <circle id="Ellipse_13-3" data-name="Ellipse 13" cx="6" cy="6" r="6" transform="translate(0 29)" fill="#fff"/>
      <circle id="Ellipse_12-3" data-name="Ellipse 12" cx="6" cy="6" r="6" transform="translate(38 29)" fill="#fff"/>
      <circle id="Ellipse_13-4" data-name="Ellipse 13" cx="6" cy="6" r="6" fill="#fff"/>
      <circle id="Ellipse_12-4" data-name="Ellipse 12" cx="6" cy="6" r="6" transform="translate(38)" fill="#fff"/>
      <circle id="Ellipse_8-2" data-name="Ellipse 8" cx="6" cy="6" r="6" transform="translate(70 29)" fill="#fff"/>
      <circle id="Ellipse_11-3" data-name="Ellipse 11" cx="6" cy="6" r="6" transform="translate(147 29)" fill="#fff"/>
      <circle id="Ellipse_13-5" data-name="Ellipse 13" cx="6" cy="6" r="6" transform="translate(223 29)" fill="#fff"/>
      <circle id="Ellipse_9-3" data-name="Ellipse 9" cx="6" cy="6" r="6" transform="translate(107 29)" fill="#fff"/>
      <circle id="Ellipse_10-4" data-name="Ellipse 10" cx="6" cy="6" r="6" transform="translate(184 29)" fill="#fff"/>
      <circle id="Ellipse_8-3" data-name="Ellipse 8" cx="6" cy="6" r="6" transform="translate(70)" fill="#fff"/>
      <circle id="Ellipse_11-4" data-name="Ellipse 11" cx="6" cy="6" r="6" transform="translate(147)" fill="#fff"/>
      <circle id="Ellipse_13-6" data-name="Ellipse 13" cx="6" cy="6" r="6" transform="translate(223)" fill="#fff"/>
      <circle id="Ellipse_9-4" data-name="Ellipse 9" cx="6" cy="6" r="6" transform="translate(107)" fill="#fff"/>
      <circle id="Ellipse_10-5" data-name="Ellipse 10" cx="6" cy="6" r="6" transform="translate(184)" fill="#fff"/>
    </g>
    <g id="Group_198" data-name="Group 198" transform="translate(0)" opacity="0.05">
      <circle id="Ellipse_8-4" data-name="Ellipse 8" cx="6" cy="6" r="6" transform="translate(109 91)" fill="#fff"/>
      <circle id="Ellipse_13-7" data-name="Ellipse 13" cx="6" cy="6" r="6" transform="translate(39 91)" fill="#fff"/>
      <circle id="Ellipse_12-5" data-name="Ellipse 12" cx="6" cy="6" r="6" transform="translate(77 91)" fill="#fff"/>
      <circle id="Ellipse_10-6" data-name="Ellipse 10" cx="6" cy="6" r="6" fill="#fff"/>
      <circle id="Ellipse_10-7" data-name="Ellipse 10" cx="6" cy="6" r="6" transform="translate(0 30)" fill="#fff"/>
      <circle id="Ellipse_12-6" data-name="Ellipse 12" cx="6" cy="6" r="6" transform="translate(300 59)" fill="#fff"/>
      <circle id="Ellipse_13-8" data-name="Ellipse 13" cx="6" cy="6" r="6" transform="translate(262)" fill="#fff"/>
      <circle id="Ellipse_10-8" data-name="Ellipse 10" cx="6" cy="6" r="6" transform="translate(223)" fill="#fff"/>
      <circle id="Ellipse_12-7" data-name="Ellipse 12" cx="6" cy="6" r="6" transform="translate(300)" fill="#fff"/>
      <circle id="Ellipse_12-8" data-name="Ellipse 12" cx="6" cy="6" r="6" transform="translate(300 30)" fill="#fff"/>
    </g>
  </g>
</svg>
