<svg xmlns="http://www.w3.org/2000/svg" width="119" height="30" viewBox="0 0 165 42">
  <g id="Group_241" data-name="Group 241" transform="translate(-0.493 42.288) rotate(-90)" opacity="0.6">
    <circle id="Ellipse_12" data-name="Ellipse 12" cx="6" cy="6" r="6" transform="translate(42.288 153.493) rotate(90)" fill="#fff" opacity="0.05"/>
    <circle id="Ellipse_11" data-name="Ellipse 11" cx="6" cy="6" r="6" transform="translate(42.288 39.493) rotate(90)" fill="#fff" opacity="0.05"/>
    <circle id="Ellipse_13" data-name="Ellipse 13" cx="6" cy="6" r="6" transform="translate(42.288 116.493) rotate(90)" fill="#fff" opacity="0.05"/>
    <ellipse id="Ellipse_9" data-name="Ellipse 9" cx="5.5" cy="6" rx="5.5" ry="6" transform="translate(42.288 0.493) rotate(90)" fill="#fff" opacity="0.05"/>
    <circle id="Ellipse_10" data-name="Ellipse 10" cx="6" cy="6" r="6" transform="translate(42.288 76.493) rotate(90)" fill="#4349a8"/>
    <circle id="Ellipse_11-2" data-name="Ellipse 11" cx="6" cy="6" r="6" transform="translate(12.288 39.493) rotate(90)" fill="#fff" opacity="0.05"/>
    <circle id="Ellipse_13-2" data-name="Ellipse 13" cx="6" cy="6" r="6" transform="translate(12.288 116.493) rotate(90)" fill="#fff" opacity="0.05"/>
    <ellipse id="Ellipse_9-2" data-name="Ellipse 9" cx="5.5" cy="6" rx="5.5" ry="6" transform="translate(12.288 0.493) rotate(90)" fill="#fff"/>
    <circle id="Ellipse_10-2" data-name="Ellipse 10" cx="6" cy="6" r="6" transform="translate(12.288 76.493) rotate(90)" fill="#fff" opacity="0.05"/>
    <circle id="Ellipse_12-2" data-name="Ellipse 12" cx="6" cy="6" r="6" transform="translate(12.288 153.493) rotate(90)" fill="#fff"/>
  </g>
</svg>
