<?xml version="1.0" encoding="utf-8"?>
<svg width="70px" height="50px" viewBox="0 0 70 50" version="1.1" xmlns:xlink="http://www.w3.org/1999/xlink" xmlns="http://www.w3.org/2000/svg">
  <desc>Created with Lunacy</desc>
  <g id="discover">
    <path d="M6.71542 0L63.2846 0Q63.4494 0 63.6141 0.00808902Q63.7787 0.016178 63.9428 0.0323366Q64.1069 0.0484951 64.2699 0.0726843Q64.433 0.0968734 64.5947 0.129035Q64.7564 0.161196 64.9163 0.201253Q65.0762 0.241309 65.234 0.289164Q65.3917 0.337018 65.5469 0.392556Q65.7021 0.448094 65.8545 0.511181Q66.0068 0.574268 66.1558 0.644752Q66.3048 0.715236 66.4502 0.792948Q66.5956 0.87066 66.737 0.955412Q66.8784 1.04016 67.0154 1.13175Q67.1525 1.22334 67.2849 1.32154Q67.4173 1.41975 67.5448 1.52433Q67.6722 1.62891 67.7944 1.73962Q67.9165 1.85033 68.0331 1.9669Q68.1497 2.08347 68.2604 2.20562Q68.3711 2.32777 68.4757 2.4552Q68.5803 2.58264 68.6784 2.71505Q68.7766 2.84746 68.8682 2.98453Q68.9598 3.1216 69.0446 3.263Q69.1293 3.4044 69.207 3.54979Q69.2848 3.69518 69.3552 3.84421Q69.4257 3.99323 69.4888 4.14554Q69.5519 4.29784 69.6074 4.45306Q69.663 4.60828 69.7108 4.76603Q69.7587 4.92379 69.7987 5.0837Q69.8388 5.24362 69.871 5.4053Q69.9031 5.56699 69.9273 5.73006Q69.9515 5.89313 69.9677 6.05719Q69.9838 6.22125 69.9919 6.38591Q70 6.55056 70 6.71542L70 43.2846Q70 43.4494 69.9919 43.6141Q69.9838 43.7788 69.9677 43.9428Q69.9515 44.1069 69.9273 44.2699Q69.9031 44.433 69.871 44.5947Q69.8388 44.7564 69.7987 44.9163Q69.7587 45.0762 69.7108 45.234Q69.663 45.3917 69.6074 45.5469Q69.5519 45.7021 69.4888 45.8545Q69.4257 46.0068 69.3552 46.1558Q69.2848 46.3048 69.207 46.4502Q69.1293 46.5956 69.0446 46.737Q68.9598 46.8784 68.8682 47.0155Q68.7766 47.1525 68.6784 47.285Q68.5802 47.4174 68.4757 47.5448Q68.3711 47.6722 68.2604 47.7944Q68.1497 47.9165 68.0331 48.0331Q67.9165 48.1497 67.7944 48.2604Q67.6722 48.3711 67.5448 48.4757Q67.4174 48.5803 67.2849 48.6785Q67.1525 48.7767 67.0155 48.8682Q66.8784 48.9598 66.737 49.0446Q66.5956 49.1293 66.4502 49.2071Q66.3048 49.2848 66.1558 49.3552Q66.0068 49.4257 65.8545 49.4888Q65.7021 49.5519 65.5469 49.6074Q65.3917 49.663 65.234 49.7108Q65.0762 49.7587 64.9163 49.7987Q64.7564 49.8388 64.5947 49.871Q64.433 49.9031 64.2699 49.9273Q64.1069 49.9515 63.9428 49.9677Q63.7787 49.9838 63.6141 49.9919Q63.4494 50 63.2846 50L6.71542 50Q6.55056 50 6.38591 49.9919Q6.22125 49.9838 6.05719 49.9677Q5.89313 49.9515 5.73006 49.9273Q5.56699 49.9031 5.4053 49.871Q5.24362 49.8388 5.0837 49.7987Q4.92379 49.7587 4.76603 49.7108Q4.60828 49.663 4.45306 49.6074Q4.29784 49.5519 4.14554 49.4888Q3.99323 49.4257 3.84421 49.3552Q3.69518 49.2848 3.54979 49.2071Q3.4044 49.1293 3.263 49.0446Q3.1216 48.9598 2.98453 48.8682Q2.84746 48.7767 2.71505 48.6785Q2.58264 48.5803 2.4552 48.4757Q2.32777 48.3711 2.20562 48.2604Q2.08347 48.1497 1.9669 48.0331Q1.85033 47.9165 1.73962 47.7944Q1.62891 47.6722 1.52433 47.5448Q1.41975 47.4174 1.32154 47.2849Q1.22334 47.1525 1.13175 47.0155Q1.04016 46.8784 0.955412 46.737Q0.87066 46.5956 0.792948 46.4502Q0.715236 46.3048 0.644752 46.1558Q0.574268 46.0068 0.511181 45.8545Q0.448094 45.7022 0.392556 45.5469Q0.337018 45.3917 0.289164 45.234Q0.241309 45.0762 0.201253 44.9163Q0.161196 44.7564 0.129035 44.5947Q0.0968734 44.433 0.0726843 44.2699Q0.0484951 44.1069 0.0323366 43.9428Q0.016178 43.7787 0.00808902 43.6141Q0 43.4494 0 43.2846L0 6.71542Q0 6.55056 0.00808902 6.38591Q0.016178 6.22125 0.0323366 6.05719Q0.0484951 5.89313 0.0726843 5.73006Q0.0968734 5.56699 0.129035 5.4053Q0.161196 5.24362 0.201253 5.0837Q0.241309 4.92379 0.289164 4.76603Q0.337018 4.60828 0.392556 4.45306Q0.448094 4.29784 0.511181 4.14554Q0.574268 3.99323 0.644752 3.84421Q0.715236 3.69518 0.792948 3.54979Q0.87066 3.4044 0.955412 3.263Q1.04016 3.1216 1.13175 2.98453Q1.22334 2.84746 1.32154 2.71505Q1.41975 2.58264 1.52433 2.4552Q1.62891 2.32777 1.73962 2.20562Q1.85033 2.08347 1.9669 1.9669Q2.08347 1.85033 2.20562 1.73962Q2.32777 1.62891 2.4552 1.52433Q2.58264 1.41975 2.71505 1.32154Q2.84746 1.22334 2.98453 1.13175Q3.1216 1.04016 3.263 0.955412Q3.4044 0.87066 3.54979 0.792948Q3.69518 0.715236 3.84421 0.644752Q3.99323 0.574268 4.14554 0.511181Q4.29784 0.448094 4.45306 0.392556Q4.60828 0.337018 4.76603 0.289164Q4.92379 0.241309 5.0837 0.201253Q5.24362 0.161196 5.4053 0.129035Q5.56699 0.0968734 5.73006 0.0726843Q5.89313 0.0484951 6.05719 0.0323366Q6.22125 0.016178 6.38591 0.00808902Q6.55056 0 6.71542 0Z" id="discover-bg" fill="#FFA200" stroke="none" />
    <path d="M13.4733 2.69314C13.4733 3.2304 13.7993 3.44531 14.8858 3.87513C17.0589 4.73476 17.6022 5.37948 17.7109 6.66893L17.7109 6.99129C17.6022 8.71055 16.1897 10 14.4512 9.89255C13.1473 9.89255 11.8435 9.24782 11.1915 8.06583L12.3867 6.88384C12.7127 7.63601 13.4733 8.17328 14.3425 8.17328L14.4512 8.17328C15.1031 8.17328 15.7551 7.52856 15.7551 6.77638C15.7551 6.34657 15.5378 6.02421 15.2118 5.8093C14.7772 5.59439 14.3425 5.37948 13.9079 5.27203C12.1694 4.73476 11.6262 3.98258 11.6262 2.69314L11.6262 2.58568C11.7348 1.08133 13.0387 -0.100666 14.5599 0.00678752C15.5378 0.00678752 16.5157 0.436603 17.2762 1.08133L16.2983 2.37077C15.8637 1.94096 15.3204 1.6186 14.7772 1.6186C14.1252 1.51114 13.582 2.04841 13.4733 2.69314ZM26.0773 4.94288C26.0773 2.14908 28.3591 0 31.0755 0C33.9005 0 36.0736 2.25653 36.1823 5.05033C36.0736 7.84413 33.9005 10.1007 31.0755 9.99321C28.2504 9.88576 26.0773 7.62923 26.0773 4.94288ZM18.2542 5.05712C18.2542 7.74347 20.4273 10 23.1437 10C24.0129 10 24.7735 9.7851 25.5341 9.46273L25.5341 7.31366C24.9908 7.95838 24.2302 8.38819 23.361 8.38819C21.6225 8.38819 20.21 7.09875 20.21 5.37949L20.21 5.16458C20.1013 3.44532 21.5138 1.94096 23.2523 1.83351C24.1216 1.83351 24.9908 2.26332 25.5341 2.90805L25.5341 0.758968C24.8821 0.329152 24.0129 0.221698 23.2523 0.221698C20.4273 0.00679064 18.2542 2.26332 18.2542 5.05712ZM3.25967 0.22171L0 0.22171L0 9.78511L2.71639 9.78511C3.9116 9.89256 5.10681 9.46275 6.08471 8.71057C7.17127 7.74348 7.8232 6.45404 7.8232 5.05714C7.93186 2.47824 5.8674 0.329164 3.25967 0.22171ZM8.5838 9.78511L10.4309 9.78511L10.4309 0.22171L8.5838 0.22171L8.5838 9.78511ZM37.8121 0.22171L40.3112 6.66894L42.9189 0.22171L44.8747 0.22171L40.8545 10L39.8766 10L35.8563 0.22171L37.8121 0.22171ZM45.744 9.78511L50.9595 9.78511L50.9595 8.1733L47.5912 8.1733L47.5912 5.5944L50.8508 5.5944L50.8508 3.9826L47.5912 3.9826L47.5912 1.83352L50.9595 1.83352L50.9595 0.22171L45.744 0.22171L45.744 9.78511ZM54.8711 0.22171C57.0442 0.22171 58.2394 1.1888 58.2394 3.01551C58.3481 4.41241 57.3702 5.5944 56.0663 5.80931L59 9.78511L56.7183 9.78511L54.2192 5.91677L54.0019 5.91677L54.0019 9.78511L52.1547 9.78511L52.1547 0.22171L54.8711 0.22171ZM54.5451 4.6273L54.0018 4.6273L54.0018 1.72604L54.5451 1.72604C55.7403 1.72604 56.2836 2.26331 56.2836 3.12294C56.2836 4.09003 55.7403 4.6273 54.5451 4.6273ZM2.39042 8.1733C3.25966 8.28075 4.23756 7.95839 4.88949 7.42112C5.54143 6.7764 5.8674 5.91676 5.8674 4.94968C5.8674 4.09005 5.54143 3.23042 4.88949 2.58569C4.23756 2.04842 3.25966 1.72606 2.39042 1.83352L1.84714 1.83352L1.84714 8.1733L2.39042 8.1733Z" transform="translate(6.631592 20.14926)" id="discover-logo" fill="#FFFFFF" fill-rule="evenodd" stroke="none" />
  </g>
</svg>