<svg xmlns="http://www.w3.org/2000/svg" width="20" height="20" viewBox="0 0 20 20"><path d="M20,20H0V0" fill="#fff" opacity="0"/><path d="M15.452,4.307a1.3,1.3,0,0,0-1.2-.194,5.458,5.458,0,0,1-1.628.218,6.221,6.221,0,0,1-2.348-.607A7.391,7.391,0,0,0,7.375,3a4.6,4.6,0,0,0-3.15.887A.792.792,0,0,0,4,4.447V16.222a.75.75,0,1,0,1.5,0V12.878a4.559,4.559,0,0,1,1.875-.319,6.221,6.221,0,0,1,2.348.607,7.391,7.391,0,0,0,2.9.723,5.569,5.569,0,0,0,2.625-.544A1.357,1.357,0,0,0,16,12.139V5.419a1.393,1.393,0,0,0-.547-1.112Z" fill="#fff"/></svg>