<svg id="Layer_2" data-name="Layer 2" xmlns="http://www.w3.org/2000/svg" width="24" height="24" viewBox="0 0 24 24">
  <g id="lock">
    <rect id="Rectangle_169" data-name="Rectangle 169" width="24" height="24" fill="#fff" opacity="0"/>
    <circle id="Ellipse_18" data-name="Ellipse 18" cx="1" cy="1" r="1" transform="translate(11 14)" fill="#fff"/>
    <path id="Path_59" data-name="Path 59" d="M17,8H16V6.11a4,4,0,0,0-8,0V8H7a3,3,0,0,0-3,3v8a3,3,0,0,0,3,3H17a3,3,0,0,0,3-3V11A3,3,0,0,0,17,8ZM10,6.11a2,2,0,1,1,4,0V8H10ZM12,18a3,3,0,1,1,3-3A3,3,0,0,1,12,18Z" fill="#fff"/>
  </g>
</svg>
