<?xml version="1.0" encoding="utf-8"?>
<svg width="71px" height="51px" viewBox="0 0 71 51" version="1.1" xmlns:xlink="http://www.w3.org/1999/xlink" xmlns="http://www.w3.org/2000/svg">
  <desc>Created with Lunacy</desc>
  <g id="mastercard" transform="translate(0.5 0.5)">
    <path d="M6.63058 0L63.3694 0Q63.5322 0 63.6948 0.00798682Q63.8573 0.0159736 64.0193 0.031928Q64.1813 0.0478824 64.3423 0.071766Q64.5033 0.0956495 64.663 0.127405Q64.8226 0.15916 64.9805 0.19871Q65.1384 0.23826 65.2942 0.28551Q65.4499 0.332761 65.6032 0.387597Q65.7564 0.442433 65.9068 0.504723Q66.0572 0.567013 66.2044 0.636606Q66.3515 0.7062 66.495 0.78293Q66.6386 0.85966 66.7782 0.943342Q66.9178 1.02702 67.0532 1.11745Q67.1885 1.20789 67.3193 1.30485Q67.45 1.40181 67.5758 1.50507Q67.7016 1.60833 67.8222 1.71764Q67.9428 1.82695 68.0579 1.94205Q68.173 2.05715 68.2824 2.17775Q68.3917 2.29836 68.4949 2.42418Q68.5982 2.55001 68.6952 2.68075Q68.7921 2.81149 68.8825 2.94683Q68.973 3.08217 69.0567 3.22178Q69.1403 3.36139 69.2171 3.50495Q69.2938 3.6485 69.3634 3.79564Q69.433 3.94278 69.4953 4.09317Q69.5576 4.24355 69.6124 4.3968Q69.6672 4.55006 69.7145 4.70582Q69.7617 4.86159 69.8013 5.01948Q69.8408 5.17737 69.8726 5.33702Q69.9043 5.49666 69.9282 5.65767Q69.9521 5.81868 69.9681 5.98067Q69.984 6.14266 69.992 6.30523Q70 6.46781 70 6.63058L70 43.3694Q70 43.5322 69.992 43.6948Q69.984 43.8573 69.9681 44.0193Q69.9521 44.1813 69.9282 44.3423Q69.9043 44.5033 69.8726 44.663Q69.8408 44.8226 69.8013 44.9805Q69.7617 45.1384 69.7145 45.2942Q69.6672 45.4499 69.6124 45.6032Q69.5576 45.7565 69.4953 45.9068Q69.433 46.0572 69.3634 46.2044Q69.2938 46.3515 69.2171 46.4951Q69.1403 46.6386 69.0566 46.7782Q68.973 46.9178 68.8825 47.0532Q68.7921 47.1885 68.6952 47.3193Q68.5982 47.45 68.4949 47.5758Q68.3917 47.7016 68.2824 47.8222Q68.173 47.9429 68.0579 48.0579Q67.9428 48.173 67.8223 48.2824Q67.7016 48.3917 67.5758 48.4949Q67.45 48.5982 67.3193 48.6952Q67.1885 48.7921 67.0532 48.8825Q66.9178 48.973 66.7782 49.0567Q66.6386 49.1403 66.4951 49.2171Q66.3515 49.2938 66.2044 49.3634Q66.0572 49.433 65.9068 49.4953Q65.7564 49.5576 65.6032 49.6124Q65.4499 49.6672 65.2942 49.7145Q65.1384 49.7617 64.9805 49.8013Q64.8226 49.8408 64.663 49.8726Q64.5033 49.9043 64.3423 49.9282Q64.1813 49.9521 64.0193 49.9681Q63.8573 49.984 63.6948 49.992Q63.5322 50 63.3694 50L6.63058 50Q6.46781 50 6.30523 49.992Q6.14266 49.984 5.98067 49.9681Q5.81868 49.9521 5.65767 49.9282Q5.49666 49.9043 5.33702 49.8726Q5.17737 49.8408 5.01948 49.8013Q4.86159 49.7617 4.70582 49.7145Q4.55006 49.6672 4.3968 49.6124Q4.24355 49.5576 4.09317 49.4953Q3.94279 49.433 3.79564 49.3634Q3.6485 49.2938 3.50495 49.2171Q3.36139 49.1403 3.22178 49.0567Q3.08217 48.973 2.94683 48.8825Q2.81149 48.7921 2.68075 48.6952Q2.55001 48.5982 2.42418 48.4949Q2.29836 48.3917 2.17775 48.2824Q2.05715 48.173 1.94205 48.0579Q1.82695 47.9429 1.71764 47.8222Q1.60833 47.7016 1.50507 47.5758Q1.40181 47.45 1.30485 47.3192Q1.20789 47.1885 1.11745 47.0532Q1.02702 46.9178 0.943342 46.7782Q0.85966 46.6386 0.78293 46.495Q0.7062 46.3515 0.636606 46.2044Q0.567013 46.0572 0.504723 45.9068Q0.442433 45.7564 0.387597 45.6032Q0.332761 45.4499 0.28551 45.2942Q0.23826 45.1384 0.19871 44.9805Q0.15916 44.8226 0.127405 44.663Q0.0956495 44.5033 0.071766 44.3423Q0.0478824 44.1813 0.031928 44.0193Q0.0159736 43.8573 0.00798682 43.6948Q0 43.5322 0 43.3694L0 6.63058Q0 6.46781 0.00798682 6.30523Q0.0159736 6.14266 0.031928 5.98067Q0.0478824 5.81868 0.071766 5.65767Q0.0956495 5.49666 0.127405 5.33702Q0.15916 5.17737 0.19871 5.01948Q0.23826 4.86159 0.28551 4.70582Q0.332761 4.55006 0.387597 4.3968Q0.442433 4.24355 0.504723 4.09317Q0.567013 3.94279 0.636606 3.79564Q0.7062 3.6485 0.78293 3.50495Q0.85966 3.36139 0.943342 3.22178Q1.02702 3.08217 1.11745 2.94683Q1.20789 2.81149 1.30485 2.68075Q1.40181 2.55001 1.50507 2.42418Q1.60833 2.29836 1.71764 2.17775Q1.82695 2.05715 1.94205 1.94205Q2.05715 1.82695 2.17775 1.71764Q2.29836 1.60833 2.42418 1.50507Q2.55001 1.40181 2.68075 1.30485Q2.81149 1.20789 2.94683 1.11745Q3.08217 1.02702 3.22178 0.943342Q3.36139 0.85966 3.50495 0.78293Q3.6485 0.7062 3.79564 0.636606Q3.94278 0.567013 4.09317 0.504723Q4.24355 0.442433 4.3968 0.387597Q4.55006 0.332761 4.70582 0.28551Q4.86159 0.23826 5.01948 0.19871Q5.17737 0.15916 5.33702 0.127405Q5.49666 0.0956495 5.65767 0.071766Q5.81868 0.0478824 5.98067 0.031928Q6.14266 0.0159736 6.30523 0.00798682Q6.46781 0 6.63058 0L6.63058 0Z" id="mastercard-bg" fill="#353A48" stroke="none" />
    <g id="mastercard-logo" transform="translate(12.89471 11.44794)">
      <path d="M22.4737 24.3139C20.0933 26.3704 17.0056 27.6119 13.6316 27.6119C6.10307 27.6119 0 21.4308 0 13.806C0 6.18114 6.10307 0 13.6316 0C17.0056 0 20.0933 1.2415 22.4737 3.29806C24.854 1.2415 27.9418 0 31.3158 0C38.8443 0 44.9474 6.18114 44.9474 13.806C44.9474 21.4308 38.8443 27.6119 31.3158 27.6119C27.9418 27.6119 24.854 26.3704 22.4737 24.3139L22.4737 24.3139Z" id="Combined-Shape" fill="#FF5E00" fill-rule="evenodd" stroke="none" />
      <path d="M22.4737 24.3139C20.0933 26.3704 17.0056 27.6119 13.6316 27.6119C6.10307 27.6119 0 21.4308 0 13.806C0 6.18114 6.10307 0 13.6316 0C17.0056 0 20.0933 1.2415 22.4737 3.29806C19.5427 5.83033 17.6842 9.59833 17.6842 13.806C17.6842 18.0136 19.5427 21.7816 22.4737 24.3139L22.4737 24.3139Z" id="Combined-Shape" fill="#ED0006" fill-rule="evenodd" stroke="none" />
      <path d="M-1.29658e-05 24.3139C2.38034 26.3704 5.46806 27.6119 8.84209 27.6119C16.3706 27.6119 22.4737 21.4308 22.4737 13.806C22.4737 6.18114 16.3706 0 8.84209 0C5.46806 0 2.38034 1.2415 -1.29658e-05 3.29806C2.93096 5.83033 4.78946 9.59833 4.78946 13.806C4.78946 18.0136 2.93096 21.7816 -1.1279e-05 24.3139L-1.29658e-05 24.3139Z" transform="translate(22.47369 0)" id="Combined-Shape" fill="#F9A000" fill-rule="evenodd" stroke="none" />
    </g>
  </g>
</svg>