<svg xmlns="http://www.w3.org/2000/svg" width="30" height="30" viewBox="0 0 30 30">
  <g id="Layer_2" data-name="Layer 2" transform="translate(-0.383 -0.264)">
    <g id="edit">
      <rect id="Rectangle_82" data-name="Rectangle 82" width="30" height="30" transform="translate(0.383 0.264)" fill="#fff" opacity="0"/>
      <path id="Path_51" data-name="Path 51" d="M23.589,8.233,20.1,4.747a2.544,2.544,0,0,0-3.383-.089L5.273,16.106a2.544,2.544,0,0,0-.725,1.539L4,22.949a1.269,1.269,0,0,0,1.272,1.386h.114l5.3-.483a2.544,2.544,0,0,0,1.539-.725L23.678,11.68a2.442,2.442,0,0,0-.089-3.447Zm-4.325,4.248L15.856,9.072l2.48-2.544L21.809,10Z" transform="translate(1.087 1.104)" fill="#fff"/>
    </g>
  </g>
</svg>
