<svg xmlns="http://www.w3.org/2000/svg" width="20" height="20" viewBox="0 0 20 20"><rect width="20" height="20" fill="#fff" opacity="0"/><path d="M17.9,6.333A1.667,1.667,0,0,0,16.483,5.5H5.817L5.333,3.617A.833.833,0,0,0,4.5,3H2.833a.833.833,0,1,0,0,1.667H3.867l2.3,8.55A.833.833,0,0,0,7,13.833h7.5a.833.833,0,0,0,.742-.458l2.733-5.467A1.667,1.667,0,0,0,17.9,6.333Z" transform="translate(-0.333 -0.5)" fill="#fff"/><circle cx="1.25" cy="1.25" r="1.25" transform="translate(5 15)" fill="#fff"/><circle cx="1.25" cy="1.25" r="1.25" transform="translate(13.333 15)" fill="#fff"/></svg>