<svg xmlns="http://www.w3.org/2000/svg" width="23" height="23" viewBox="0 0 23 23"><g transform="translate(-0.369)"><g transform="translate(0.369)"><rect width="23" height="23" fill="#fff" opacity="0"/><path d="M18.447,5H4.9A2.938,2.938,0,0,0,2,7.973V15.9a2.938,2.938,0,0,0,2.9,2.973H18.447a2.938,2.938,0,0,0,2.9-2.973V7.973A2.938,2.938,0,0,0,18.447,5Zm-7.74,9.909H6.837a.991.991,0,0,1,0-1.982h3.87a.991.991,0,0,1,0,1.982Zm5.8,0H14.577a.991.991,0,0,1,0-1.982h1.935a.991.991,0,0,1,0,1.982Zm2.9-5.946H3.935V7.973A.979.979,0,0,1,4.9,6.982H18.447a.979.979,0,0,1,.967.991Z" transform="translate(-0.586 -0.437)" fill="#fff"/></g></g></svg>