<svg xmlns="http://www.w3.org/2000/svg" width="23" height="23" viewBox="0 0 23 23"><g transform="translate(0.092)"><g transform="translate(-0.092)"><rect width="23" height="23" fill="#fff" opacity="0"/><rect width="23" height="23" fill="#fff" opacity="0"/><path d="M10.167,2a8.167,8.167,0,1,0,8.167,8.167A8.167,8.167,0,0,0,10.167,2Zm0,1.633a6.689,6.689,0,0,1,1.462.171,2.131,2.131,0,0,1-.637.817c-.18.139-.376.253-.572.376A3.724,3.724,0,0,0,8.909,6.361a5.3,5.3,0,0,0-.506,2.7c0,1.111,0,1.764-.776,2.344-1.119.874-2.826.384-3.887-.057a6.8,6.8,0,0,1-.106-1.176,6.533,6.533,0,0,1,6.533-6.533ZM14.16,15.328a5.545,5.545,0,0,0-.514-.931c-.09-.131-.18-.261-.261-.4-.319-.555-.2-.817.31-1.633l.082-.139a3.9,3.9,0,0,0,.474-1.985,4.427,4.427,0,0,1,.074-.817c.131-.6,1.4-.76,2.18-.817a6.484,6.484,0,0,1-2.336,6.762Z" transform="translate(1.658 1.333)" fill="#fff"/></g></g></svg>