<svg xmlns="http://www.w3.org/2000/svg" width="20" height="20" viewBox="0 0 20 20"><rect width="20" height="20" fill="#fff" opacity="0"/><path d="M16.316,5.886l-2.2-2.2A2.333,2.333,0,0,0,12.466,3H7.534a2.333,2.333,0,0,0-1.649.684l-2.2,2.2A2.333,2.333,0,0,0,3,7.534v7.132A2.333,2.333,0,0,0,5.333,17h9.333A2.333,2.333,0,0,0,17,14.667V7.534a2.333,2.333,0,0,0-.684-1.649ZM10,13.111A3.111,3.111,0,0,1,6.889,10a.778.778,0,1,1,1.556,0,1.556,1.556,0,0,0,3.111,0,.778.778,0,1,1,1.556,0A3.111,3.111,0,0,1,10,13.111Zm-4.348-7,1.33-1.33a.817.817,0,0,1,.552-.226h4.931a.817.817,0,0,1,.552.226l1.33,1.33Z" transform="translate(0 0)" fill="#fff"/></svg>