<svg xmlns="http://www.w3.org/2000/svg" width="30" height="30" viewBox="0 0 30 30">
  <g id="Layer_2" data-name="Layer 2" transform="translate(-0.144 -0.264)">
    <g id="trash-2">
      <rect id="Rectangle_83" data-name="Rectangle 83" width="30" height="30" transform="translate(0.144 0.264)" fill="#fff" opacity="0"/>
      <path id="Path_52" data-name="Path 52" d="M26.167,7.088h-6.36V4.964A3.078,3.078,0,0,0,16.628,2H12.812a3.078,3.078,0,0,0-3.18,2.964V7.088H3.272a1.272,1.272,0,1,0,0,2.544H4.544V23.624A3.816,3.816,0,0,0,8.36,27.44h12.72A3.816,3.816,0,0,0,24.9,23.624V9.632h1.272a1.272,1.272,0,0,0,0-2.544ZM12.176,19.808a1.272,1.272,0,1,1-2.544,0V14.72a1.272,1.272,0,1,1,2.544,0Zm0-14.844c0-.2.267-.42.636-.42h3.816c.369,0,.636.216.636.42V7.088H12.176Zm7.632,14.844a1.272,1.272,0,1,1-2.544,0V14.72a1.272,1.272,0,1,1,2.544,0Z" transform="translate(0.544 0.544)" fill="#fff"/>
    </g>
  </g>
</svg>
